<svg
  xmlns="http://www.w3.org/2000/svg"
  style="position: relative"
  viewBox="0 0 3749.4 832.38"
><defs><style
    >.cls-1,.cls-27{fill:none;stroke:#2ea031;stroke-miterlimit:10;}.cls-1{stroke-width:5px;}.cls-2,.cls-24,.cls-3,.cls-35,.cls-4{fill:#2ea031;}.cls-2{opacity:0.3;}.cls-4{font-size:18px;}.cls-24,.cls-35,.cls-4{font-family:Montserrat-Bold, Montserrat;font-weight:700;}.cls-5{letter-spacing:-0.01em;}.cls-6{letter-spacing:0em;}.cls-7{letter-spacing:-0.01em;}.cls-41,.cls-8{font-size:16px;font-family:Montserrat-Regular, Montserrat;}.cls-8{font-weight:400;fill:#000;}.cls-9{letter-spacing:-0.01em;}.cls-10{letter-spacing:-0.02em;}.cls-11{letter-spacing:-0.01em;}.cls-12{letter-spacing:-0.02em;}.cls-13{letter-spacing:-0.01em;}.cls-14{letter-spacing:0em;}.cls-15{letter-spacing:-0.01em;}.cls-16{letter-spacing:0.01em;}.cls-17{letter-spacing:0em;}.cls-18{letter-spacing:-0.01em;}.cls-19{letter-spacing:-0.02em;}.cls-20{letter-spacing:0em;}.cls-21{letter-spacing:0.02em;}.cls-22{letter-spacing:0.01em;}.cls-23{letter-spacing:-0.02em;}.cls-24,.cls-35{font-size:19px;}.cls-24,.cls-36{letter-spacing:0em;}.cls-25{letter-spacing:-0.01em;}.cls-26{letter-spacing:0em;}.cls-27{stroke-width:2px;}.cls-28{letter-spacing:0em;}.cls-29{letter-spacing:-0.01em;}.cls-30{letter-spacing:0em;}.cls-31{letter-spacing:-0.01em;}.cls-32{letter-spacing:-0.01em;}.cls-33{letter-spacing:0em;}.cls-34{letter-spacing:-0.01em;}.cls-37{letter-spacing:0em;}.cls-38{letter-spacing:-0.01em;}.cls-39{letter-spacing:-0.01em;}.cls-40{letter-spacing:-0.05em;}.cls-42{letter-spacing:-0.01em;}</style></defs><g
    id="Layer_2"
    data-name="Layer 2"
  ><g id="Layer_6" data-name="Layer 6"><polyline
        class="cls-1"
        points="18.29 451.69 515.06 304.7 1011.83 451.69 1508.6 304.7 2005.37 451.69 2502.14 304.7 2998.91 451.69 3495.68 304.7"
      /><circle class="cls-2" cx="18.29" cy="451.69" r="18.29" /><circle
        class="cls-3"
        cx="18.29"
        cy="451.69"
        r="7.76"
      /><circle class="cls-2" cx="515.06" cy="304.7" r="18.29" /><circle
        class="cls-3"
        cx="515.06"
        cy="304.7"
        r="7.76"
      /><circle class="cls-2" cx="1011.83" cy="451.69" r="18.29" /><circle
        class="cls-3"
        cx="1011.83"
        cy="451.69"
        r="7.76"
      /><circle class="cls-2" cx="1508.6" cy="304.7" r="18.29" /><circle
        class="cls-3"
        cx="1508.6"
        cy="304.7"
        r="7.76"
      /><circle class="cls-2" cx="2005.37" cy="451.69" r="18.29" /><circle
        class="cls-3"
        cx="2005.37"
        cy="451.69"
        r="7.76"
      /><circle class="cls-2" cx="2502.14" cy="304.7" r="18.29" /><circle
        class="cls-3"
        cx="2502.14"
        cy="304.7"
        r="7.76"
      /><circle class="cls-2" cx="2998.91" cy="451.69" r="18.29" /><circle
        class="cls-3"
        cx="2998.91"
        cy="451.69"
        r="7.76"
      /><circle class="cls-2" cx="3495.68" cy="304.7" r="18.29" /><circle
        class="cls-3"
        cx="3495.68"
        cy="304.7"
        r="7.76"
      /><text class="cls-4" transform="translate(502.5 113.71)"><tspan
          class="cls-5"
        >Q</tspan><tspan x="15.01" y="0">1</tspan><tspan
          class="cls-6"
          x="22.07"
          y="0"
        >-</tspan><tspan class="cls-7" x="29.09" y="0">Q</tspan><tspan
          x="44.04"
          y="0"
        >3</tspan>
        <tspan x="0" y="19.2" class="cls-8">
        <tspan x="0" y="19.2">Market research and contact with the</tspan>
        <tspan x="0" y="38.4">first strategic partners</tspan></tspan><tspan
          x="0"
          y="81.37"
        >Q4</tspan><tspan class="cls-8"><tspan
            x="0"
            y="100.57"
          >Start of practical test of the strategy</tspan>
          
          
          </tspan></text><text
        class="cls-24"
        transform="translate(535.34 76.93)"
      >2<tspan class="cls-25" x="11.17" y="0">0</tspan><tspan
          class="cls-26"
          x="23.96"
          y="0"
        >18</tspan></text><line
        class="cls-27"
        x1="503.98"
        y1="70.87"
        x2="527.35"
        y2="70.87"
      /><text class="cls-4" transform="translate(5.73 578.9)">Q4 </text>
      <text class="cls-4" transform="translate(5.73 598.9)">
     
      <tspan class="cls-8">
      Idea of the growing strategy
 </tspan></text><text class="cls-24" transform="translate(38.57 542.12)">2<tspan
          class="cls-25"
          x="11.17"
          y="0"
        >0</tspan><tspan class="cls-26" x="23.96" y="0">17</tspan></text><line
        class="cls-27"
        x1="7.21"
        y1="536.06"
        x2="30.57"
        y2="536.06"
      /><text class="cls-4" transform="translate(1494.56 52.93)"><tspan
          class="cls-5"
        >Q</tspan><tspan x="15.01" y="0">1</tspan><tspan class="cls-8">
       
        <tspan
            class="cls-29"
            x="0"
            y="19.2"
          > First full growing cycle done</tspan>
          
          
          
          </tspan><tspan class="cls-5" x="0" y="62.17">Q</tspan><tspan
          x="15.01"
          y="62.17"
        >1</tspan><tspan class="cls-6" x="22.07" y="62.17">-</tspan><tspan
          class="cls-7"
          x="29.09"
          y="62.17"
        >Q</tspan><tspan x="44.05" y="62.17">3</tspan><tspan
          class="cls-8"
        ><tspan
            x="0"
            y="81.37"
          >Development of the Crowd Growing platform and legal </tspan><tspan
            x="0"
            y="100.57"
          >setup</tspan></tspan><tspan x="0" y="143.54">Q4</tspan><tspan
          class="cls-8"
        ><tspan
            class="cls-14"
            x="0"
            y="162.74"
          >Launch of the Beta version of the Crowd Growing platform</tspan></tspan></text><text
        class="cls-35"
        transform="translate(1527.4 16.15)"
      ><tspan class="cls-36">2</tspan><tspan
          class="cls-25"
          x="11.17"
          y="0"
        >0</tspan><tspan class="cls-36" x="23.96" y="0">2</tspan><tspan
          x="35.13"
          y="0"
        >0</tspan></text><line
        class="cls-27"
        x1="1496.04"
        y1="10.09"
        x2="1519.4"
        y2="10.09"
      /><text class="cls-4" transform="translate(997.79 578.9)"><tspan
          class="cls-5"
        >Q</tspan><tspan x="15.01" y="0">2</tspan><tspan class="cls-8"><tspan
            x="0"
            y="19.2"
          >Implementation of new key working steps to finalize</tspan><tspan
            x="0"
            y="38.4"
          >the strategy</tspan></tspan><tspan
          class="cls-7"
          x="0"
          y="81.37"
        >Q</tspan><tspan x="14.96" y="81.37">3</tspan><tspan
          class="cls-8"
        ><tspan
            class="cls-29"
            x="0"
            y="100.57"
          >First test investments and test grows  </tspan></tspan><tspan
          x="0"
          y="143.54"
        >Q4</tspan><tspan class="cls-8"><tspan
            x="0"
            y="162.74"
          >Development of business scailing strategies and idea of</tspan><tspan
            x="0"
            y="181.94"
          >Cowed Growing Ecosystem</tspan></tspan></text><text
        class="cls-24"
        transform="translate(1030.63 542.12)"
      >2<tspan class="cls-25" x="11.17" y="0">0</tspan><tspan
          class="cls-26"
          x="23.96"
          y="0"
        >19</tspan></text><line
        class="cls-27"
        x1="999.27"
        y1="536.06"
        x2="1022.63"
        y2="536.06"
      /><text class="cls-4" transform="translate(2488.58 135.42)"><tspan
          class="cls-5"
        >Q</tspan><tspan x="15.01" y="0">1</tspan><tspan class="cls-8"><tspan
            x="0"
            y="19.2"
          >Sta</tspan><tspan class="cls-21" x="25.78" y="19.2">r</tspan><tspan
            x="32.43"
            y="19.2"
          >t of d</tspan><tspan
            class="cls-29"
            x="73.62"
            y="19.2"
          >e</tspan><tspan class="cls-12" x="83.12" y="19.2">v</tspan><tspan
            x="91.55"
            y="19.2"
          >elop</tspan><tspan class="cls-14" x="126.4" y="19.2">m</tspan><tspan
            x="143.41"
            y="19.2"
          >ent of C</tspan><tspan
            class="cls-11"
            x="205.74"
            y="19.2"
          >r</tspan><tspan class="cls-32" x="211.95" y="19.2">ow</tspan><tspan
            x="235.57"
            y="19.2"
          >d G</tspan><tspan class="cls-11" x="262.97" y="19.2">r</tspan><tspan
            class="cls-12"
            x="269.18"
            y="19.2"
          >o</tspan><tspan x="278.97" y="19.2">wi</tspan><tspan
            class="cls-14"
            x="297.34"
            y="19.2"
          >n</tspan><tspan x="308.21" y="19.2">g </tspan><tspan
            class="cls-40"
            x="323.37"
            y="19.2"
          >T</tspan><tspan x="331.68" y="19.2">o</tspan><tspan
            class="cls-10"
            x="341.71"
            y="19.2"
          >k</tspan><tspan x="350.99" y="19.2">en</tspan></tspan><tspan
          x="0"
          y="62.17"
        >Q4</tspan><tspan class="cls-8"><tspan x="0" y="81.37">Rel</tspan><tspan
            class="cls-12"
            x="25.54"
            y="81.37"
          >e</tspan><tspan x="34.96" y="81.37">ase of de</tspan><tspan
            class="cls-18"
            x="106.24"
            y="81.37"
          >c</tspan><tspan x="115.1" y="81.37">ent</tspan><tspan
            class="cls-18"
            x="142.1"
            y="81.37"
          >r</tspan><tspan x="148.37" y="81.37">ali</tspan><tspan
            class="cls-15"
            x="166.42"
            y="81.37"
          >z</tspan><tspan x="174.45" y="81.37">ed </tspan><tspan
            class="cls-34"
            x="199.15"
            y="81.37"
          >C</tspan><tspan x="210.53" y="81.37">annabis Plat</tspan><tspan
            class="cls-15"
            x="309.97"
            y="81.37"
          >f</tspan><tspan x="315.25" y="81.37">o</tspan><tspan
            class="cls-9"
            x="325.28"
            y="81.37"
          >r</tspan><tspan x="331.57" y="81.37">m</tspan></tspan></text><text
        class="cls-35"
        transform="translate(2521.42 98.64)"
      ><tspan class="cls-36">2</tspan><tspan
          class="cls-25"
          x="11.17"
          y="0"
        >0</tspan><tspan x="23.96" y="0">22</tspan></text><line
        class="cls-27"
        x1="2490.06"
        y1="92.58"
        x2="2513.42"
        y2="92.58"
      /><text class="cls-4" transform="translate(1991.81 578.9)"><tspan
          class="cls-5"
        >Q</tspan><tspan x="15.01" y="0">1</tspan><tspan class="cls-8"><tspan
            x="0"
            y="19.2"
          >Official lau</tspan><tspan
            class="cls-14"
            x="85.61"
            y="19.2"
          >n</tspan><tspan class="cls-9" x="96.48" y="19.2">c</tspan><tspan
            x="105.36"
            y="19.2"
          >h of C</tspan><tspan
            class="cls-11"
            x="151.53"
            y="19.2"
          >r</tspan><tspan class="cls-12" x="157.74" y="19.2">ow</tspan><tspan
            x="181.36"
            y="19.2"
          >d G</tspan><tspan class="cls-13" x="208.76" y="19.2">r</tspan><tspan
            class="cls-12"
            x="214.97"
            y="19.2"
          >o</tspan><tspan x="224.77" y="19.2">wi</tspan><tspan
            class="cls-14"
            x="243.13"
            y="19.2"
          >n</tspan><tspan x="254" y="19.2">g </tspan><tspan
            class="cls-9"
            x="269.17"
            y="19.2"
          >E</tspan><tspan class="cls-15" x="279.74" y="19.2">c</tspan><tspan
            class="cls-37"
            x="288.6"
            y="19.2"
          >o </tspan><tspan class="cls-29" x="302.83" y="19.2">s</tspan><tspan
            class="cls-39"
            x="310.49"
            y="19.2"
          >y</tspan><tspan x="319.07" y="19.2">s</tspan><tspan
            class="cls-23"
            x="326.89"
            y="19.2"
          >t</tspan><tspan x="333.08" y="19.2">em</tspan></tspan><tspan
          class="cls-5"
          x="0"
          y="62.17"
        >Q</tspan><tspan x="15.01" y="62.17">2</tspan><tspan
          class="cls-8"
        ><tspan x="0" y="81.37">Openi</tspan><tspan
            class="cls-14"
            x="49.07"
            y="81.37"
          >n</tspan><tspan x="59.94" y="81.37">g of C</tspan><tspan
            class="cls-11"
            x="106.26"
            y="81.37"
          >r</tspan><tspan class="cls-12" x="112.46" y="81.37">ow</tspan><tspan
            x="136.08"
            y="81.37"
          >d G</tspan><tspan class="cls-11" x="163.49" y="81.37">r</tspan><tspan
            class="cls-12"
            x="169.7"
            y="81.37"
          >o</tspan><tspan x="179.49" y="81.37">wi</tspan><tspan
            class="cls-14"
            x="197.86"
            y="81.37"
          >n</tspan><tspan x="208.72" y="81.37">g offi</tspan><tspan
            class="cls-15"
            x="250.35"
            y="81.37"
          >c</tspan><tspan x="259.21" y="81.37">e</tspan></tspan><tspan
          class="cls-5"
          x="0"
          y="124.34"
        >Q</tspan><tspan x="15.01" y="124.34">2</tspan><tspan
          class="cls-8"
        ><tspan x="0" y="143.54">Glo</tspan><tspan
            class="cls-20"
            x="26.7"
            y="143.54"
          >b</tspan><tspan x="37.5" y="143.54">al p</tspan><tspan
            class="cls-11"
            x="66.29"
            y="143.54"
          >r</tspan><tspan x="72.5" y="143.54">o</tspan><tspan
            class="cls-14"
            x="82.53"
            y="143.54"
          >m</tspan><tspan x="99.54" y="143.54">otion cam</tspan><tspan
            class="cls-20"
            x="180.85"
            y="143.54"
          >p</tspan><tspan x="191.65" y="143.54">aign</tspan></tspan><tspan
          class="cls-7"
          x="0"
          y="186.51"
        >Q</tspan><tspan x="14.96" y="186.51">3</tspan><tspan
          class="cls-8"
        ><tspan class="cls-29" x="0" y="205.71">F</tspan><tspan
            x="9.97"
            y="205.71"
          >i</tspan><tspan class="cls-30" x="14.27" y="205.71">r</tspan><tspan
            x="20.62"
            y="205.71"
          >st glo</tspan><tspan
            class="cls-20"
            x="64.45"
            y="205.71"
          >b</tspan><tspan x="75.25" y="205.71">al </tspan><tspan
            class="cls-15"
            x="93.18"
            y="205.71"
          >c</tspan><tspan class="cls-37" x="102.05" y="205.71">o</tspan><tspan
            class="cls-29"
            x="112.08"
            y="205.71"
          >n</tspan><tspan class="cls-12" x="122.75" y="205.71">v</tspan><tspan
            x="131.18"
            y="205.71"
          >ention</tspan></tspan></text><text
        class="cls-35"
        transform="translate(2024.65 542.12)"
      ><tspan class="cls-36">2</tspan><tspan
          class="cls-25"
          x="11.17"
          y="0"
        >0</tspan><tspan x="23.96" y="0">21</tspan></text><line
        class="cls-27"
        x1="1993.29"
        y1="536.06"
        x2="2016.65"
        y2="536.06"
      /><text class="cls-41" transform="translate(3482.64 217.72)"><tspan
          class="cls-40"
        >T</tspan><tspan x="8.3" y="0">o be an</tspan><tspan
          class="cls-14"
          x="67.5"
          y="0"
        >n</tspan><tspan x="78.37" y="0">ou</tspan><tspan
          class="cls-14"
          x="99.17"
          y="0"
        >n</tspan><tspan class="cls-15" x="110.03" y="0">c</tspan><tspan
          x="118.89"
          y="0"
        >ed</tspan></text><text
        class="cls-35"
        transform="translate(3515.49 182.42)"
      ><tspan class="cls-36">2</tspan><tspan
          class="cls-25"
          x="11.17"
          y="0"
        >0</tspan><tspan class="cls-42" x="23.96" y="0">2</tspan><tspan
          x="34.98"
          y="0"
        >4</tspan></text><line
        class="cls-27"
        x1="3484.13"
        y1="176.37"
        x2="3507.49"
        y2="176.37"
      /><text class="cls-41" transform="translate(2985.87 577.41)"><tspan
          class="cls-40"
        >T</tspan><tspan x="8.3" y="0">o be an</tspan><tspan
          class="cls-14"
          x="67.5"
          y="0"
        >n</tspan><tspan x="78.37" y="0">ou</tspan><tspan
          class="cls-14"
          x="99.17"
          y="0"
        >n</tspan><tspan class="cls-15" x="110.03" y="0">c</tspan><tspan
          x="118.89"
          y="0"
        >ed</tspan></text><text
        class="cls-35"
        transform="translate(3018.72 542.12)"
      ><tspan class="cls-36">2</tspan><tspan
          class="cls-25"
          x="11.17"
          y="0"
        >0</tspan><tspan x="23.96" y="0">23</tspan></text><line
        class="cls-27"
        x1="2987.36"
        y1="536.06"
        x2="3010.72"
        y2="536.06"
      /><text /></g></g></svg>
